<svg version="1.1" xmlns="http://www.w3.org/2000/svg" style="display: block;" viewBox="0 0 2048 2048" width="1024" height="1024">
<path transform="translate(0,0)" fill="rgb(254,254,252)" d="M 0 0 L 2048 0 L 2048 2048 L 1464.54 2048 L 0 2048 L 0 1675.86 L 0 0 z"/>
<path transform="translate(0,0)" fill="rgb(101,100,101)" d="M 178.033 966.281 C 181.195 966.498 184.379 969.006 186.41 971.324 C 187.874 972.995 189.182 974.819 190.479 976.62 C 198.608 978.096 216.409 964.791 223.944 966.987 C 223.329 969.213 222.394 971.092 221.405 973.165 L 220.136 973.051 L 219.383 970.579 L 218.832 970.713 C 218.728 973.643 218.679 976.576 218.355 979.491 C 223.779 987.887 213.216 1005.89 216.084 1016.88 C 218.44 1025.9 236.878 1034.12 236.284 1039.85 C 234.496 1042.31 233.589 1043.03 233.415 1046.13 C 234.455 1047.87 234.805 1048.52 236.532 1049.69 L 240.022 1047.65 L 241.415 1048.07 C 241.056 1050.32 240.59 1052.6 240.374 1054.87 C 241.978 1056.69 242.17 1056.97 241.842 1059.58 C 241.137 1065.2 213.693 1120.34 209.64 1126.77 C 207.636 1129.95 205.57 1132.78 202.344 1134.82 C 199.995 1136.31 197.517 1136.93 194.788 1136.19 C 191.089 1135.19 187.665 1132.95 184.564 1130.77 C 167.559 1118.79 151.661 1104.28 135.69 1090.96 C 128.921 1085.31 121.355 1080.56 114.723 1074.79 C 112.221 1072.61 108.961 1069.71 107.575 1066.64 C 106.452 1064.16 106.254 1061.61 107.128 1059 C 107.422 1058.12 107.795 1057.74 108.325 1057.07 C 114.387 1047.88 152.384 1005.31 160.707 1000.93 C 169.409 996.342 164.206 993.968 168.089 987.776 C 170.975 983.175 179.094 979.373 180.809 974.339 C 181.778 971.494 179.371 968.796 178.033 966.281 z"/>
<path transform="translate(0,0)" fill="rgb(254,254,252)" d="M 178.033 966.281 C 181.195 966.498 184.379 969.006 186.41 971.324 C 187.874 972.995 189.182 974.819 190.479 976.62 C 198.608 978.096 216.409 964.791 223.944 966.987 C 223.329 969.213 222.394 971.092 221.405 973.165 L 220.136 973.051 L 219.383 970.579 L 218.832 970.713 C 218.728 973.643 218.679 976.576 218.355 979.491 C 223.779 987.887 213.216 1005.89 216.084 1016.88 C 218.44 1025.9 236.878 1034.12 236.284 1039.85 C 234.496 1042.31 233.589 1043.03 233.415 1046.13 C 234.455 1047.87 234.805 1048.52 236.532 1049.69 L 240.022 1047.65 L 241.415 1048.07 C 241.056 1050.32 240.59 1052.6 240.374 1054.87 L 238.457 1055.21 L 237.276 1054.18 C 230.455 1048.33 222 1043.75 214.847 1038.01 C 201.63 1027.41 188.406 1014.46 174.696 1004.83 C 172.458 1003.25 170.554 1002.14 167.883 1001.53 C 151.234 1004.37 115.565 1058.66 108.325 1057.07 C 114.387 1047.88 152.384 1005.31 160.707 1000.93 C 169.409 996.342 164.206 993.968 168.089 987.776 C 170.975 983.175 179.094 979.373 180.809 974.339 C 181.778 971.494 179.371 968.796 178.033 966.281 z"/>
<path transform="translate(0,0)" fill="rgb(83,82,83)" d="M 178.033 966.281 C 181.195 966.498 184.379 969.006 186.41 971.324 C 187.874 972.995 189.182 974.819 190.479 976.62 C 198.608 978.096 216.409 964.791 223.944 966.987 C 223.329 969.213 222.394 971.092 221.405 973.165 L 220.136 973.051 L 219.383 970.579 L 218.832 970.713 C 211.17 974.38 204.392 976.616 195.903 977.836 C 189.057 985.805 182.309 994.459 176.647 1003.33 C 185.082 1009.88 193.07 1016.98 201.416 1023.64 C 210.601 1030.98 220.37 1037.99 229.053 1045.89 C 230.644 1042.99 231.928 1041.77 231.495 1038.43 C 221.344 1024.38 209.929 1025.76 213.286 1004.8 C 214.634 996.38 216.346 987.777 218.355 979.491 C 223.779 987.887 213.216 1005.89 216.084 1016.88 C 218.44 1025.9 236.878 1034.12 236.284 1039.85 C 234.496 1042.31 233.589 1043.03 233.415 1046.13 C 234.455 1047.87 234.805 1048.52 236.532 1049.69 L 240.022 1047.65 L 241.415 1048.07 C 241.056 1050.32 240.59 1052.6 240.374 1054.87 L 238.457 1055.21 L 237.276 1054.18 C 230.455 1048.33 222 1043.75 214.847 1038.01 C 201.63 1027.41 188.406 1014.46 174.696 1004.83 C 172.458 1003.25 170.554 1002.14 167.883 1001.53 C 151.234 1004.37 115.565 1058.66 108.325 1057.07 C 114.387 1047.88 152.384 1005.31 160.707 1000.93 C 169.409 996.342 164.206 993.968 168.089 987.776 C 170.975 983.175 179.094 979.373 180.809 974.339 C 181.778 971.494 179.371 968.796 178.033 966.281 z"/>
<path transform="translate(0,0)" fill="rgb(254,254,252)" d="M 501.298 740.74 L 1611.82 740.457 L 1611.76 1371.94 L 835.944 1371.33 L 587.057 1370.92 C 545.589 1370.83 503.995 1370.02 462.537 1370.75 C 460.051 1370.79 457.625 1370.8 455.361 1371.91 C 442.527 1352.32 437.591 1326.92 431.399 1304.6 C 427.6 1290.91 423.368 1277.45 420.456 1263.52 C 419.152 1257.28 415.98 1235.45 414.224 1231.03 C 413.999 1230.47 413.566 1230.01 413.236 1229.49 L 413.949 1229.66 L 413.593 1226.66 C 429.175 1201.15 441.12 1173.02 456.142 1147.08 C 464 1133.73 469.799 1118.82 478.481 1106.07 C 486.739 1103.35 494.89 1100.7 503.002 1097.54 L 502.971 1284.09 L 1520.2 1283.12 L 1520.34 831.224 L 765.712 831.289 L 585.002 830.995 C 568.74 830.935 523.625 828.811 510.691 831.544 L 509.764 833.66 C 508.917 824.488 509.244 814.797 507.238 805.816 C 507.338 797.172 505.456 788.5 505.403 779.796 C 502.121 768.086 502.38 752.95 501.298 740.74 z"/>
<path transform="translate(0,0)" fill="rgb(177,167,156)" d="M 507.238 805.816 C 533.809 806.52 560.503 805.645 587.09 805.602 L 759.849 805.312 L 1253.42 805.549 A 19130 19130 0 0 1 1546.92 805.831 L 1546.36 1129.08 C 1546.34 1188.57 1547.44 1248.29 1546.29 1307.75 L 923.111 1307.56 L 621.742 1308.21 L 527.337 1308.06 C 514.292 1308.03 500.546 1309.01 487.598 1308.28 C 484.712 1308.11 483.237 1307.91 481.059 1306 C 479.74 1302.47 479.051 1299 478.781 1295.25 C 477.558 1278.26 478.651 1260.56 478.71 1243.5 L 479.045 1142.97 C 479.081 1131.27 480.596 1117.46 478.481 1106.07 C 486.739 1103.35 494.89 1100.7 503.002 1097.54 L 502.971 1284.09 L 1520.2 1283.12 L 1520.34 831.224 L 765.712 831.289 L 585.002 830.995 C 568.74 830.935 523.625 828.811 510.691 831.544 L 509.764 833.66 C 508.917 824.488 509.244 814.797 507.238 805.816 z"/>
<path transform="translate(0,0)" fill="rgb(177,167,156)" d="M 501.298 740.74 L 1611.82 740.457 L 1611.76 1371.94 L 835.944 1371.33 L 587.057 1370.92 C 545.589 1370.83 503.995 1370.02 462.537 1370.75 C 460.051 1370.79 457.625 1370.8 455.361 1371.91 C 442.527 1352.32 437.591 1326.92 431.399 1304.6 C 427.6 1290.91 423.368 1277.45 420.456 1263.52 C 419.152 1257.28 415.98 1235.45 414.224 1231.03 C 413.999 1230.47 413.566 1230.01 413.236 1229.49 L 413.949 1229.66 L 413.593 1226.66 C 429.175 1201.15 441.12 1173.02 456.142 1147.08 C 459.27 1160.44 457.276 1193.33 457.224 1208.3 L 456.97 1331.04 L 1571.77 1331.1 L 1570.95 780.134 C 1470.27 778.988 1369.49 780.341 1268.8 780.29 L 505.403 779.796 C 502.121 768.086 502.38 752.95 501.298 740.74 z"/>
<path transform="translate(0,0)" fill="rgb(177,167,156)" d="M 0 1675.86 L 72.6557 1695.1 C 84.8297 1698.32 99.1594 1700.87 110.564 1706.04 C 105.554 1708.52 101.931 1711.49 100.148 1717 C 98.5873 1721.83 99.4701 1729.28 101.887 1733.74 C 107.792 1744.62 131.083 1751.43 142.327 1754.22 C 163.817 1759.54 247.418 1779.25 264.402 1768.96 C 268.086 1766.73 270.257 1762.86 271.063 1758.7 C 272.04 1753.67 271.632 1747.92 271.642 1742.79 A 6091.07 6091.07 0 0 1 464.477 1781.55 C 465.561 1788.26 469.625 1797.5 475.153 1801.65 C 481.213 1806.2 487.894 1806.57 495.158 1805.42 C 506.092 1803.69 517.215 1799.22 527.19 1794.53 C 548.96 1802.86 585.449 1808.15 609.356 1813.96 L 810.024 1863.4 A 10818.1 10818.1 0 0 1 1227.88 1976.58 C 1306.96 1999.38 1386.63 2021.47 1464.54 2048 L 0 2048 L 0 1675.86 z"/>
<path transform="translate(0,0)" fill="rgb(101,100,101)" d="M 260.442 368.396 C 261.393 365.456 262.329 362.333 263.783 359.592 C 274.603 339.188 311.226 311.416 333.737 305.142 C 362.753 297.054 394.569 306.572 419.917 321.124 C 443.224 334.505 458.261 351.158 465.311 377.268 C 478.621 375.866 492.827 376.78 504.535 383.891 C 522.112 394.565 544.31 428.183 549.456 447.982 C 554.541 467.547 547.769 483.433 538.06 500.042 C 532.562 509.449 510.403 545.427 501.293 547.835 C 490.241 541.197 462.053 487.297 457.969 472.748 C 456.981 469.229 456.979 465.467 457.332 461.854 C 458.544 449.443 470.618 424.8 466.06 414.325 C 464.228 410.114 461.375 409.281 457.371 407.681 L 456 407.145 C 456.095 417.786 456.373 428.723 454.388 439.216 C 449.946 462.7 433.43 476.981 414.506 489.712 C 449.962 538.245 477.49 579.511 493.938 638.022 C 498.772 655.217 502.829 673.232 504.105 691.082 C 504.623 698.33 500.055 704.495 499.44 711.625 C 498.633 720.967 500.655 731.338 501.298 740.74 C 502.38 752.95 502.121 768.086 505.403 779.796 C 505.456 788.5 507.338 797.172 507.238 805.816 C 509.244 814.797 508.917 824.488 509.764 833.66 L 526.023 992.124 C 527.842 1011.31 532.678 1039.08 530.741 1057.81 C 529.841 1066.51 526.549 1074.13 521.093 1080.95 C 516.011 1087.31 509.359 1092.52 503.002 1097.54 C 494.89 1100.7 486.739 1103.35 478.481 1106.07 C 469.799 1118.82 464 1133.73 456.142 1147.08 C 441.12 1173.02 429.175 1201.15 413.593 1226.66 L 413.949 1229.66 L 413.236 1229.49 C 413.566 1230.01 413.999 1230.47 414.224 1231.03 C 415.98 1235.45 419.152 1257.28 420.456 1263.52 C 423.368 1277.45 427.6 1290.91 431.399 1304.6 C 437.591 1326.92 442.527 1352.32 455.361 1371.91 C 477.062 1399.63 504.559 1429.24 519.724 1460.92 C 527.385 1476.92 530.986 1496.1 534.793 1513.39 C 545.385 1561.47 551.755 1613.28 575.276 1657.25 C 578.141 1653.54 580.635 1649.63 584.795 1647.29 C 587.234 1647.41 587.666 1647.6 589.46 1649.52 C 595.041 1655.49 595.787 1667.04 600.788 1674.23 C 601.021 1674.56 601.236 1674.91 601.477 1675.24 C 608.625 1684.97 638.341 1693.38 636.966 1706.39 C 635.186 1723.25 596.885 1750.69 582.567 1760.71 C 565.274 1772.81 546.31 1785.54 527.19 1794.53 C 517.215 1799.22 506.092 1803.69 495.158 1805.42 C 487.894 1806.57 481.213 1806.2 475.153 1801.65 C 469.625 1797.5 465.561 1788.26 464.477 1781.55 A 6091.07 6091.07 0 0 0 271.642 1742.79 C 271.632 1747.92 272.04 1753.67 271.063 1758.7 C 270.257 1762.86 268.086 1766.73 264.402 1768.96 C 247.418 1779.25 163.817 1759.54 142.327 1754.22 C 131.083 1751.43 107.792 1744.62 101.887 1733.74 C 99.4701 1729.28 98.5873 1721.83 100.148 1717 C 101.931 1711.49 105.554 1708.52 110.564 1706.04 C 145.201 1706.18 165.498 1702.68 196.811 1687.09 C 197.068 1679.25 197.135 1669.81 202.421 1663.56 C 204.018 1662.89 204.713 1662.24 206.497 1662.62 C 211.723 1663.75 214.425 1669.57 217.124 1673.71 C 219.804 1654.49 223.847 1635.47 226.4 1616.21 A 1152 1152 0 0 0 236.268 1458.86 C 236.015 1436.28 235.466 1413.62 233.466 1391.12 C 231.669 1370.89 226.811 1352.95 229.435 1332.32 C 232.549 1307.83 242.948 1282.93 250.274 1259.37 C 259.317 1230.3 267.375 1200.99 276.153 1171.85 C 276.71 1170.01 277.319 1168.52 277.168 1166.55 C 276.056 1151.99 271.642 1136.68 269.457 1122.11 C 265.54 1096 263.166 1069.66 260.516 1043.4 C 257.314 1043.15 253.947 1042.74 250.736 1042.84 C 246.298 1042.97 244.273 1044.96 241.415 1048.07 L 240.022 1047.65 L 236.532 1049.69 C 234.805 1048.52 234.455 1047.87 233.415 1046.13 C 233.589 1043.03 234.496 1042.31 236.284 1039.85 C 236.878 1034.12 218.44 1025.9 216.084 1016.88 C 213.216 1005.89 223.779 987.887 218.355 979.491 C 218.679 976.576 218.728 973.643 218.832 970.713 L 219.383 970.579 L 220.136 973.051 L 221.405 973.165 C 222.394 971.092 223.329 969.213 223.944 966.987 C 216.409 964.791 198.608 978.096 190.479 976.62 C 189.182 974.819 187.874 972.995 186.41 971.324 C 184.379 969.006 181.195 966.498 178.033 966.281 C 177.2 964.963 176.596 963.699 176.103 962.215 C 173.521 954.438 170.585 921.216 174.677 914.525 C 178.023 909.053 189.362 907.853 195.025 906.665 A 1945.55 1945.55 0 0 0 248.766 780.732 C 253.241 769.262 260.403 755.152 262.46 743.094 C 263.531 736.814 260.492 729.097 258.953 723.009 C 256.527 713.409 254.494 703.286 255.731 693.341 C 257.896 675.917 266.239 660.804 273.744 645.253 C 280.949 630.323 287.012 614.519 295.225 600.117 C 301.073 589.863 308.344 580.284 314.933 570.493 A 784.703 784.703 0 0 0 338.178 533.392 C 334.254 528.344 330.704 522.923 327.029 517.685 C 318.546 522.06 308.915 528.906 299.225 529.54 C 294.647 529.839 290.246 528.651 286.845 525.467 C 280.685 519.699 280.176 510.528 279.692 502.671 L 267.506 497.218 C 272.23 477.76 264.821 488.89 258.249 477.762 C 257.849 471.429 261.124 466.962 264.568 462.021 C 260.497 460.597 255.41 459.302 251.808 456.956 C 249.562 455.493 248.591 453.965 247.999 451.359 C 249.548 444.611 268.574 433.962 274.032 425.309 C 274.251 424.962 274.461 424.609 274.676 424.259 C 274.793 419.642 274.608 415.004 274.524 410.386 C 261.441 413.471 248.296 416.972 234.941 418.614 C 224.546 413.078 214.326 404.206 208.086 394.14 C 205.929 390.662 204.017 387.529 204.986 383.34 C 213.691 376.943 246.621 372.896 259.199 368.813 L 260.442 368.396 z"/>
<path transform="translate(0,0)" fill="rgb(254,254,252)" d="M 327.345 1342.82 L 335.607 1360.97 C 355.792 1398.1 386.726 1429.65 410.87 1464.43 A 1441.85 1441.85 0 0 1 509.963 1631 C 517.531 1646.11 523.98 1661.74 531.165 1677.03 C 524.801 1676.5 517.548 1674.89 512.391 1679.69 C 510.556 1681.39 509.98 1683.35 510.048 1685.8 C 510.219 1692.02 516.704 1698.92 521.072 1702.8 C 509.729 1736.73 483 1749.46 466.619 1777.96 C 465.926 1779.16 465.187 1780.35 464.477 1781.55 A 6091.07 6091.07 0 0 0 271.642 1742.79 C 269.759 1732.34 267.802 1722.03 266.792 1711.45 C 270.228 1706.08 276.518 1696.93 275.258 1690.21 C 274.851 1688.03 273.477 1686.44 271.514 1685.5 C 268.085 1683.85 262.719 1685.63 259.174 1686.39 C 271.81 1644.8 284.447 1603.32 297.746 1561.92 C 307.956 1530.13 321.04 1496.53 326.239 1463.55 C 331.688 1428.99 302.139 1393.37 322.679 1354.07 C 324.4 1350.36 325.978 1346.68 327.345 1342.82 z"/>
<path transform="translate(0,0)" fill="rgb(254,254,252)" d="M 509.764 833.66 L 510.691 831.544 C 523.625 828.811 568.74 830.935 585.002 830.995 L 765.712 831.289 L 1520.34 831.224 L 1520.2 1283.12 L 502.971 1284.09 L 503.002 1097.54 C 509.359 1092.52 516.011 1087.31 521.093 1080.95 C 526.549 1074.13 529.841 1066.51 530.741 1057.81 C 532.678 1039.08 527.842 1011.31 526.023 992.124 L 509.764 833.66 z"/>
<path transform="translate(0,0)" fill="rgb(177,167,156)" d="M 634.623 937.234 L 648.978 937.275 L 648.919 1018.18 L 679.828 1018.1 L 679.012 1030.58 C 664.272 1031.53 649.297 1031.07 634.521 1031.08 L 634.623 937.234 z"/>
<path transform="translate(0,0)" fill="rgb(177,167,156)" d="M 1167.01 936.947 L 1181.1 936.954 L 1181.33 1017.05 L 1213.72 1017.11 C 1213.56 1021.6 1213.15 1026.1 1212.83 1030.59 C 1198 1031.74 1182.34 1030.76 1167.42 1030.8 C 1166.55 999.582 1167.12 968.185 1167.01 936.947 z"/>
<path transform="translate(0,0)" fill="rgb(177,167,156)" d="M 748.08 1081.95 L 775 1082 L 774.82 1181.73 L 748.167 1181.71 L 748.08 1081.95 z"/>
<path transform="translate(0,0)" fill="rgb(177,167,156)" d="M 1322.54 937.076 A 3410.29 3410.29 0 0 0 1376.72 937.097 L 1376.66 949.967 L 1337 949.981 L 1337.01 974.396 L 1376.45 974.167 L 1376.24 986.35 C 1369.46 986.313 1340.61 984.446 1336.81 987.975 L 1336.82 1017.84 L 1376.27 1017.91 L 1376.08 1030.36 A 3518.92 3518.92 0 0 0 1322.89 1030.5 L 1322.54 937.076 z"/>
<path transform="translate(0,0)" fill="rgb(177,167,156)" d="M 890.797 936.909 L 943.235 936.883 L 943.064 950.022 L 904.147 950.269 L 904.062 974.577 A 3046.87 3046.87 0 0 1 943.83 974.521 L 943.88 987.259 C 931.123 987.361 917.816 986.244 905.149 987.512 L 904.005 989.007 L 904.013 1017.22 A 1209.99 1209.99 0 0 0 943.985 1017.1 L 943.945 1031.11 L 890.642 1031.05 L 890.797 936.909 z"/>
<path transform="translate(0,0)" fill="rgb(177,167,156)" d="M 829.415 935.372 C 848.412 934.615 860.369 941.774 874.404 953.627 C 870.404 956.36 866.597 959.401 862.746 962.341 C 859.635 958.934 856.595 955.774 852.567 953.442 C 843.682 948.298 831.274 947.636 821.475 950.27 C 812.787 952.604 805.684 958.066 801.463 966.037 C 796.716 975.003 795.685 986.398 798.935 996.026 C 801.819 1004.57 807.767 1011.72 815.934 1015.65 C 826.921 1020.94 839.424 1019.7 850.554 1015.61 C 854.844 1012.93 858.103 1010.34 861.627 1006.68 C 865.127 1009.96 869.001 1012.76 872.823 1015.64 C 864.804 1024.43 854.557 1030.66 842.714 1032.53 C 828.29 1034.82 812.837 1032.28 801.049 1023.32 A 47.9906 47.9906 0 0 1 782.292 990.766 A 50.0889 50.0889 0 0 1 793.604 952.43 C 803.148 941.058 815.089 936.776 829.415 935.372 z"/>
<path transform="translate(0,0)" fill="rgb(177,167,156)" d="M 974.525 936.506 L 975.913 936.758 C 978.824 940.726 977.219 967.656 977.195 974.116 L 1018.56 974.093 L 1018.67 936.894 L 1032.21 937.026 A 8850.67 8850.67 0 0 0 1032.93 1031.49 C 1027.97 1031.48 1023.11 1031.54 1018.19 1030.73 A 3596.14 3596.14 0 0 0 1018.31 987.749 L 977.109 987.814 C 977.09 1002.24 977.432 1016.68 977.63 1031.11 L 962.975 1031.1 L 962.891 970.416 C 962.879 959.518 962.351 948.323 963.311 937.473 C 966.571 935.907 970.925 936.513 974.525 936.506 z"/>
<path transform="translate(0,0)" fill="rgb(177,167,156)" d="M 561.069 937.03 C 575.209 936.957 596.791 934.374 608.463 943.536 A 27.5295 27.5295 0 0 1 618.667 961.867 C 619.458 968.419 617.894 975.317 613.477 980.335 C 604.591 990.428 588.437 989.344 576.132 989.769 C 573.428 993.561 574.846 1024.49 574.87 1031.35 L 561.557 1031.34 L 561.069 937.03 z"/>
<path transform="translate(0,0)" fill="rgb(254,254,252)" d="M 575.931 950.184 C 583.057 950.009 589.715 949.528 596.478 952.221 C 600.013 953.628 603.23 955.668 604.381 959.558 C 605.802 964.363 603.329 969.291 600.788 973.199 C 592.798 977.422 584.476 976.4 575.703 976.252 L 575.931 950.184 z"/>
<path transform="translate(0,0)" fill="rgb(177,167,156)" d="M 731.418 933.57 C 738.023 939.714 759.716 992.401 765.725 1004.93 C 769.852 1013.53 774.435 1021.85 779.175 1030.12 C 773.685 1030.39 768.168 1030.44 762.672 1030.58 A 736.657 736.657 0 0 0 751.987 1008.36 L 730.75 1008.12 L 711.563 1008.04 A 527.758 527.758 0 0 1 698.854 1031 L 684.441 1030.84 C 700.999 998.843 715.737 965.987 731.418 933.57 z"/>
<path transform="translate(0,0)" fill="rgb(254,254,252)" d="M 731.374 962.714 C 735.716 967.208 744.132 989.325 748.349 996.831 L 736.25 996.894 L 716.452 996.927 A 636.067 636.067 0 0 0 731.374 962.714 z"/>
<path transform="translate(0,0)" fill="rgb(177,167,156)" d="M 1396.81 936.94 C 1412.16 936.86 1431.85 934.425 1445.38 942.79 C 1450.62 946.029 1454.5 950.789 1455.84 956.871 C 1457.32 963.634 1456.11 971.107 1452.35 976.944 C 1446.8 985.539 1438.78 988.115 1429.32 989.931 C 1439.09 1003.28 1448.91 1016.57 1457.88 1030.48 L 1442.33 1029.9 C 1431.86 1016.84 1423.44 999.212 1410.86 988.356 C 1409.94 1002.46 1410.16 1016.7 1410.05 1030.83 L 1397.01 1030.79 L 1396.81 936.94 z"/>
<path transform="translate(0,0)" fill="rgb(254,254,252)" d="M 1410.95 949.887 C 1418.96 949.518 1427.69 948.719 1434.99 952.651 C 1437.91 954.221 1440.1 956.575 1440.83 959.888 C 1441.91 964.733 1439.81 970.629 1437.46 974.807 C 1429.37 979.861 1420.1 978.616 1410.93 978.533 L 1410.95 949.887 z"/>
<path transform="translate(0,0)" fill="rgb(177,167,156)" d="M 1215.97 1080.66 L 1282.06 1080.97 L 1282.01 1102.03 L 1242.99 1102.18 L 1243 1118.42 L 1281.04 1118.35 L 1280.81 1139.36 C 1271.74 1139.16 1251.33 1137.07 1243.65 1140.1 L 1243.03 1142.75 L 1243.07 1160.63 L 1283.25 1160.59 L 1283.39 1181.6 L 1215.93 1181.47 L 1215.97 1080.66 z"/>
<path transform="translate(0,0)" fill="rgb(177,167,156)" d="M 988.466 1081.01 L 1007.34 1081.11 C 1022.74 1113.99 1036.28 1148.02 1050.09 1181.61 C 1040.52 1181.88 1030.91 1181.75 1021.34 1181.79 C 1019.75 1177.92 1018.53 1171.21 1015.77 1168.11 C 1013.62 1165.71 1012.2 1166.2 1009.25 1166.11 A 2162.28 2162.28 0 0 0 978.126 1166.46 L 973.115 1181.27 L 944.441 1181.13 C 949.856 1166.09 956.889 1151.81 963.476 1137.28 A 6093.23 6093.23 0 0 0 988.466 1081.01 z"/>
<path transform="translate(0,0)" fill="rgb(254,254,252)" d="M 997.014 1111.56 C 1002.62 1121.3 1005.4 1135.25 1008.74 1146.03 C 1004.53 1146.31 1000.22 1146.19 995.998 1146.27 L 985.81 1146.1 C 989.725 1134.63 993.62 1123.2 997.014 1111.56 z"/>
<path transform="translate(0,0)" fill="rgb(177,167,156)" d="M 1226.91 936.497 C 1246.83 937.306 1269.07 933.755 1285.85 947.142 C 1295.77 955.059 1301.72 967.077 1302.69 979.668 C 1303.84 994.489 1298.38 1005.95 1288.81 1016.75 C 1269.75 1032.58 1250.31 1030.67 1227.05 1030.74 L 1226.91 936.497 z"/>
<path transform="translate(0,0)" fill="rgb(254,254,252)" d="M 1241.29 949.852 C 1253.53 949.648 1265.24 949.8 1275.57 957.468 C 1282.44 962.562 1287.09 970.089 1288.07 978.627 C 1289.29 989.25 1284.93 999.655 1278.38 1007.79 C 1266.89 1017.75 1255.25 1017.21 1241.01 1017.18 L 1241.29 949.852 z"/>
<path transform="translate(0,0)" fill="rgb(177,167,156)" d="M 1123.62 1078.36 C 1125.94 1078.13 1128.24 1077.98 1130.58 1077.96 C 1148.26 1077.78 1160.81 1084.37 1173.13 1096.55 C 1166.84 1101.94 1160.51 1107.19 1153.91 1112.21 C 1152.96 1111.26 1152.03 1110.35 1150.99 1109.5 C 1144.28 1104.01 1136.06 1100.79 1127.31 1101.87 A 29.1025 29.1025 0 0 0 1107.69 1113.45 A 32.4077 32.4077 0 0 0 1101.75 1138.28 A 28.2065 28.2065 0 0 0 1114.21 1157.37 C 1120.41 1161.47 1128.86 1164.11 1136.27 1162.5 C 1144.72 1160.66 1150.07 1154.93 1154.64 1148.05 A 1010.26 1010.26 0 0 1 1126.34 1147.48 C 1126.09 1140.67 1126.16 1133.82 1126.1 1127.01 L 1142.5 1127.05 A 3227.22 3227.22 0 0 0 1180.45 1126.67 C 1181.15 1139.31 1180.29 1151.26 1173.49 1162.41 C 1166.81 1173.38 1155.96 1180.7 1143.46 1183.38 C 1127.42 1186.81 1109.2 1183.67 1095.68 1174.29 C 1084.23 1166.34 1076.19 1154.43 1074.12 1140.53 C 1071.94 1125.96 1075.94 1110.27 1085.1 1098.68 C 1094.76 1086.47 1108.44 1080.07 1123.62 1078.36 z"/>
<path transform="translate(0,0)" fill="rgb(177,167,156)" d="M 894.978 1080.96 L 915.337 1081.04 L 914.967 1181.18 L 888.468 1181.21 A 1748.85 1748.85 0 0 0 888.31 1124.72 L 882.56 1132.41 C 877.996 1138.49 871.604 1149.77 863.65 1150.9 C 855.062 1148.98 844.451 1130.71 839.11 1123.55 L 839.026 1143.1 L 839.29 1181.9 L 813.021 1181.82 L 812.931 1081.75 L 833.952 1081.9 C 844.949 1093.87 854.68 1107.61 864.714 1120.41 C 875.398 1107.64 885.513 1094.65 894.978 1080.96 z"/>
<path transform="translate(0,0)" fill="rgb(177,167,156)" d="M 1097.93 935.332 C 1109.22 935.347 1119.63 937.304 1128.95 944.033 C 1139.43 951.595 1145.95 963.268 1147.82 975.966 C 1149.79 989.442 1146.89 1003.28 1138.38 1014.08 C 1128.96 1026.03 1116.52 1030.05 1102.06 1031.84 C 1090.74 1031.73 1080.36 1030.09 1070.8 1023.54 A 46.4012 46.4012 0 0 1 1051.22 992.459 C 1049.13 979.136 1052.19 965.049 1060.46 954.289 C 1069.95 941.93 1083.02 937.114 1097.93 935.332 z"/>
<path transform="translate(0,0)" fill="rgb(254,254,252)" d="M 1095.07 949.206 C 1102.51 948.818 1109.24 949.469 1115.99 952.894 A 34.5036 34.5036 0 0 1 1133.45 974.192 C 1136.09 983.21 1135.23 993.219 1130.53 1001.42 C 1125.12 1010.88 1116.95 1014.97 1106.96 1017.95 C 1098.55 1019.11 1090.52 1018.48 1083.03 1014.17 C 1074.82 1009.44 1068.95 1001.02 1066.84 991.841 C 1064.67 982.407 1066.33 971.824 1071.67 963.705 C 1077.39 955.012 1085.27 951.451 1095.07 949.206 z"/>
</svg>